<mxfile host="Electron" agent="Mozilla/5.0 (X11; Linux x86_64) AppleWebKit/537.36 (KHTML, like Gecko) draw.io/24.7.8 Chrome/128.0.6613.36 Electron/32.0.1 Safari/537.36" version="24.7.8">
  <diagram name="Page-1" id="SnBhu0NbgwmwPgOS_eX_">
    <mxGraphModel dx="637" dy="587" grid="1" gridSize="10" guides="1" tooltips="1" connect="1" arrows="1" fold="1" page="1" pageScale="1" pageWidth="850" pageHeight="1100" math="1" shadow="0">
      <root>
        <mxCell id="0" />
        <mxCell id="1" parent="0" />
        <mxCell id="zv7AGFsP8iFbr7Y47mdB-1" value="" style="pointerEvents=1;verticalLabelPosition=bottom;shadow=0;dashed=0;align=center;html=1;verticalAlign=top;shape=mxgraph.electrical.capacitors.capacitor_1;direction=south;strokeWidth=3;" vertex="1" parent="1">
          <mxGeometry x="225" y="400" width="50" height="100" as="geometry" />
        </mxCell>
        <mxCell id="zv7AGFsP8iFbr7Y47mdB-2" value="" style="pointerEvents=1;verticalLabelPosition=bottom;shadow=0;dashed=0;align=center;html=1;verticalAlign=top;shape=mxgraph.electrical.resistors.resistor_1;direction=south;strokeWidth=3;" vertex="1" parent="1">
          <mxGeometry x="360" y="350" width="20" height="100" as="geometry" />
        </mxCell>
        <mxCell id="zv7AGFsP8iFbr7Y47mdB-3" value="" style="pointerEvents=1;verticalLabelPosition=bottom;shadow=0;dashed=0;align=center;html=1;verticalAlign=top;shape=mxgraph.electrical.capacitors.capacitor_1;direction=south;strokeWidth=3;" vertex="1" parent="1">
          <mxGeometry x="345" y="461" width="50" height="100" as="geometry" />
        </mxCell>
        <mxCell id="zv7AGFsP8iFbr7Y47mdB-4" value="" style="endArrow=none;html=1;rounded=0;strokeWidth=3;" edge="1" parent="1" source="zv7AGFsP8iFbr7Y47mdB-3">
          <mxGeometry width="50" height="50" relative="1" as="geometry">
            <mxPoint x="320" y="500" as="sourcePoint" />
            <mxPoint x="370" y="450" as="targetPoint" />
          </mxGeometry>
        </mxCell>
        <mxCell id="zv7AGFsP8iFbr7Y47mdB-5" value="" style="endArrow=none;html=1;rounded=0;strokeWidth=3;" edge="1" parent="1">
          <mxGeometry width="50" height="50" relative="1" as="geometry">
            <mxPoint x="249.83" y="400" as="sourcePoint" />
            <mxPoint x="249.83" y="320" as="targetPoint" />
          </mxGeometry>
        </mxCell>
        <mxCell id="zv7AGFsP8iFbr7Y47mdB-6" value="" style="endArrow=none;html=1;rounded=0;strokeWidth=3;" edge="1" parent="1">
          <mxGeometry width="50" height="50" relative="1" as="geometry">
            <mxPoint x="249.83" y="580" as="sourcePoint" />
            <mxPoint x="249.83" y="500" as="targetPoint" />
          </mxGeometry>
        </mxCell>
        <mxCell id="zv7AGFsP8iFbr7Y47mdB-7" value="" style="endArrow=none;html=1;rounded=0;strokeWidth=3;" edge="1" parent="1">
          <mxGeometry width="50" height="50" relative="1" as="geometry">
            <mxPoint x="250" y="320" as="sourcePoint" />
            <mxPoint x="370" y="320" as="targetPoint" />
          </mxGeometry>
        </mxCell>
        <mxCell id="zv7AGFsP8iFbr7Y47mdB-8" value="" style="endArrow=none;html=1;rounded=0;strokeWidth=3;" edge="1" parent="1">
          <mxGeometry width="50" height="50" relative="1" as="geometry">
            <mxPoint x="369.92" y="360" as="sourcePoint" />
            <mxPoint x="369.92" y="320" as="targetPoint" />
          </mxGeometry>
        </mxCell>
        <mxCell id="zv7AGFsP8iFbr7Y47mdB-9" value="" style="endArrow=none;html=1;rounded=0;strokeWidth=3;" edge="1" parent="1">
          <mxGeometry width="50" height="50" relative="1" as="geometry">
            <mxPoint x="250" y="580" as="sourcePoint" />
            <mxPoint x="370" y="580" as="targetPoint" />
          </mxGeometry>
        </mxCell>
        <mxCell id="zv7AGFsP8iFbr7Y47mdB-10" value="" style="endArrow=none;html=1;rounded=0;strokeWidth=3;" edge="1" parent="1">
          <mxGeometry width="50" height="50" relative="1" as="geometry">
            <mxPoint x="370" y="580" as="sourcePoint" />
            <mxPoint x="370" y="560" as="targetPoint" />
          </mxGeometry>
        </mxCell>
        <mxCell id="zv7AGFsP8iFbr7Y47mdB-11" value="" style="endArrow=none;html=1;rounded=0;strokeWidth=3;" edge="1" parent="1">
          <mxGeometry width="50" height="50" relative="1" as="geometry">
            <mxPoint x="320" y="320" as="sourcePoint" />
            <mxPoint x="320" y="280" as="targetPoint" />
          </mxGeometry>
        </mxCell>
        <mxCell id="zv7AGFsP8iFbr7Y47mdB-12" value="" style="endArrow=none;html=1;rounded=0;strokeWidth=3;" edge="1" parent="1">
          <mxGeometry width="50" height="50" relative="1" as="geometry">
            <mxPoint x="320" y="600" as="sourcePoint" />
            <mxPoint x="320" y="580" as="targetPoint" />
          </mxGeometry>
        </mxCell>
        <mxCell id="zv7AGFsP8iFbr7Y47mdB-13" value="" style="pointerEvents=1;verticalLabelPosition=bottom;shadow=0;dashed=0;align=center;html=1;verticalAlign=top;shape=mxgraph.electrical.signal_sources.signal_ground;strokeWidth=3;" vertex="1" parent="1">
          <mxGeometry x="305" y="600" width="30" height="30" as="geometry" />
        </mxCell>
        <mxCell id="zv7AGFsP8iFbr7Y47mdB-14" value="" style="shape=waypoint;sketch=0;fillStyle=solid;size=6;pointerEvents=1;points=[];fillColor=none;resizable=0;rotatable=0;perimeter=centerPerimeter;snapToPoint=1;strokeWidth=3;" vertex="1" parent="1">
          <mxGeometry x="310" y="570" width="20" height="20" as="geometry" />
        </mxCell>
        <mxCell id="zv7AGFsP8iFbr7Y47mdB-15" value="" style="shape=waypoint;sketch=0;fillStyle=solid;size=6;pointerEvents=1;points=[];fillColor=none;resizable=0;rotatable=0;perimeter=centerPerimeter;snapToPoint=1;strokeWidth=3;" vertex="1" parent="1">
          <mxGeometry x="310" y="310" width="20" height="20" as="geometry" />
        </mxCell>
        <mxCell id="zv7AGFsP8iFbr7Y47mdB-16" value="&lt;font style=&quot;font-size: 18px;&quot;&gt;$$-\frac{1}{g_m}$$&lt;/font&gt;" style="text;html=1;align=center;verticalAlign=middle;whiteSpace=wrap;rounded=0;" vertex="1" parent="1">
          <mxGeometry x="380" y="385" width="60" height="30" as="geometry" />
        </mxCell>
        <mxCell id="zv7AGFsP8iFbr7Y47mdB-17" value="&lt;font style=&quot;font-size: 18px;&quot;&gt;$$-2C_c$$&lt;/font&gt;" style="text;html=1;align=center;verticalAlign=middle;whiteSpace=wrap;rounded=0;" vertex="1" parent="1">
          <mxGeometry x="395" y="496" width="60" height="30" as="geometry" />
        </mxCell>
        <mxCell id="zv7AGFsP8iFbr7Y47mdB-18" value="&lt;font style=&quot;font-size: 18px;&quot;&gt;$$4C_{gd}$$&lt;/font&gt;" style="text;html=1;align=center;verticalAlign=middle;whiteSpace=wrap;rounded=0;" vertex="1" parent="1">
          <mxGeometry x="180" y="415" width="60" height="30" as="geometry" />
        </mxCell>
        <mxCell id="zv7AGFsP8iFbr7Y47mdB-19" value="&lt;font style=&quot;font-size: 18px;&quot;&gt;$$V_{ip},\space V_{im}$$&lt;/font&gt;" style="text;html=1;align=center;verticalAlign=middle;whiteSpace=wrap;rounded=0;" vertex="1" parent="1">
          <mxGeometry x="285" y="250" width="60" height="30" as="geometry" />
        </mxCell>
      </root>
    </mxGraphModel>
  </diagram>
</mxfile>
